<svg xmlns="http://www.w3.org/2000/svg" viewBox="0 0 174.22 60"><defs><style>.cls-1{fill:#d5a10f;}</style></defs><g id="Schools"><g id="SCIS_NEW_" data-name="SCIS (NEW)"><rect id="Separator" class="cls-1" x="-0.01" y="11.29" width="1" height="48.71"/><path class="cls-1" d="M25.37,28A2.46,2.46,0,0,0,23,26.08c-1.69,0-2.71,1.58-2.71,4.68s.88,4.68,2.79,4.68c1.13,0,1.83-.41,2.58-2L28,34.1a4.83,4.83,0,0,1-4.93,3.46c-3.38,0-5.33-2.47-5.33-6.8s2-6.81,5.33-6.81a4.26,4.26,0,0,1,4.62,3.49Z"/><path class="cls-1" d="M33,27.66c2.59,0,4.15,1.92,4.15,4.95s-1.56,5-4.15,5-4.15-1.92-4.15-5S30.37,27.66,33,27.66Zm0,1.83c-1.27,0-1.87,1-1.87,3.12s.6,3.12,1.87,3.12,1.87-1,1.87-3.12S34.23,29.49,33,29.49Z"/><path class="cls-1" d="M38.5,37.38V27.84h2.07v1a3.74,3.74,0,0,1,2.86-1.21,2.5,2.5,0,0,1,2.35,1.39,4.27,4.27,0,0,1,3.29-1.39c1,0,2.34.58,2.34,2.86v6.86H49.14V30.72c0-.77-.31-1.19-1.14-1.23a3.46,3.46,0,0,0-1.91,1v6.86H43.82V30.72c0-.77-.31-1.19-1.14-1.23a3.42,3.42,0,0,0-1.91,1v6.86Z"/><path class="cls-1" d="M53.39,27.84h2.19v.88A3.35,3.35,0,0,1,58,27.66c2.53,0,3.81,2.23,3.81,5.21,0,2.35-1.35,4.69-3.81,4.69a3.26,3.26,0,0,1-2.31-1.06h0v4.37H53.39Zm2.28,7.08a2.62,2.62,0,0,0,1.76.81c1.36,0,2.13-1.1,2.13-3.12s-.77-3.12-2.13-3.12a2.41,2.41,0,0,0-1.76.85Z"/><path class="cls-1" d="M71.12,27.84v9.54H69v-1a5.32,5.32,0,0,1-2.94,1.21c-1.91,0-2.82-1.24-2.82-3.19V27.84h2.27V34c0,1.29.4,1.69,1.17,1.69a2.88,2.88,0,0,0,2.13-1V27.84Z"/><path class="cls-1" d="M73.52,27.84V24.68h2.27v3.16h1.87v1.83H75.79v5.4c0,.51.26.66.83.66a5.14,5.14,0,0,0,1-.18v1.87a15.41,15.41,0,0,1-1.79.14c-1.69,0-2.35-.84-2.35-2.2V29.67H72.2V27.84Z"/><path class="cls-1" d="M79.11,26.08V24h2.28v2.13Zm2.28,11.3H79.11V27.84h2.28Z"/><path class="cls-1" d="M83.44,37.38V27.84h2.1v1a5.26,5.26,0,0,1,2.93-1.21c1.91,0,2.83,1.24,2.83,3.19v6.53H89v-6.2c0-1.29-.4-1.69-1.17-1.69a2.9,2.9,0,0,0-2.13,1v6.88Z"/><path class="cls-1" d="M101.15,29.2a3,3,0,0,0-1.47.22,2.81,2.81,0,0,1,.51,1.69c0,1.79-1.21,3.08-3.59,3.08-1,0-1.78,0-1.78.59,0,1.54,6.27-.55,6.27,3.26,0,1.36-1.37,2.83-4.42,2.83-2.57,0-4.26-.77-4.26-2.28a1.68,1.68,0,0,1,1.73-1.76v0c-.44-.27-1.41-.51-1.41-1.54s1.06-1.61,1.48-1.74A3.16,3.16,0,0,1,92.8,31c0-1.67,1.28-3.32,3.76-3.32a3.85,3.85,0,0,1,2.35.84,2.47,2.47,0,0,1,2.24-.84Zm-6.64,9.1c0,.73.62,1.06,2.53,1.06,1.47,0,2-.73,2-1.06s-.68-1.1-2.88-1.1C94.87,37.2,94.51,37.9,94.51,38.3Zm2-9a1.58,1.58,0,1,0,1.56,1.58A1.58,1.58,0,0,0,96.54,29.34Z"/><path class="cls-1" d="M113,37.38l-.15-.82a5,5,0,0,1-3,1A2.43,2.43,0,0,1,107.29,35c0-2.16,1.76-3.3,5.47-3.74v-.81c0-.73-.59-1.14-1.4-1.14a2.44,2.44,0,0,0-2.09,1.18L107.8,29.4a4.28,4.28,0,0,1,3.56-1.74c2.57.05,3.67,1,3.67,3.85V36a4.13,4.13,0,0,0,.19,1.37Zm-.24-4.57c-1.52.3-3.19.61-3.19,1.95a1,1,0,0,0,1.1,1.12,4,4,0,0,0,2.09-1Z"/><path class="cls-1" d="M116.92,37.38V27.84H119v1a5.26,5.26,0,0,1,2.93-1.21c1.91,0,2.83,1.24,2.83,3.19v6.53h-2.28v-6.2c0-1.29-.4-1.69-1.17-1.69a2.92,2.92,0,0,0-2.13,1v6.88Z"/><path class="cls-1" d="M134.64,37.38h-1.93l-.11-1A3.49,3.49,0,0,1,130,37.56c-2.54,0-3.82-2.23-3.82-5.21,0-2.35,1.36-4.69,3.82-4.69a3.28,3.28,0,0,1,2.31,1.06h0V24.13h2.27Zm-2.27-7.08a2.63,2.63,0,0,0-1.77-.81c-1.35,0-2.12,1.1-2.12,3.12s.77,3.12,2.12,3.12a2.44,2.44,0,0,0,1.77-.84Z"/><path class="cls-1" d="M17.72,56.66V43.41h2.54V56.66Z"/><path class="cls-1" d="M22.59,56.66V47.12h2.09v1a5.32,5.32,0,0,1,2.94-1.21c1.91,0,2.83,1.24,2.83,3.19v6.53H28.17v-6.2c0-1.29-.4-1.69-1.17-1.69a2.88,2.88,0,0,0-2.13,1v6.88Z"/><path class="cls-1" d="M35.08,49v7.71H32.81V49H31.49V47.12h1.3V45.94c0-2,.83-2.71,2.7-2.71H37v1.83h-.62c-1,0-1.29.3-1.29,1v1H37V49Z"/><path class="cls-1" d="M41.67,46.94c2.58,0,4.14,1.92,4.14,5s-1.56,5-4.14,5-4.15-1.92-4.15-5S39.08,46.94,41.67,46.94Zm0,1.83c-1.27,0-1.87,1-1.87,3.12S40.4,55,41.67,55s1.87-1,1.87-3.12S42.93,48.77,41.67,48.77Z"/><path class="cls-1" d="M47.13,56.66V47.12h2.09v1.63h0a2.8,2.8,0,0,1,2.68-1.81v2.4a2.43,2.43,0,0,0-.41,0,2.73,2.73,0,0,0-2.13,1.54v5.8Z"/><path class="cls-1" d="M53,56.66V47.12h2.08v1A3.74,3.74,0,0,1,58,46.94a2.5,2.5,0,0,1,2.35,1.39,4.27,4.27,0,0,1,3.28-1.39c1,0,2.35.58,2.35,2.86v6.86H63.68V50c0-.77-.32-1.19-1.14-1.23a3.42,3.42,0,0,0-1.91,1v6.86H58.36V50c0-.77-.32-1.19-1.14-1.23a3.42,3.42,0,0,0-1.91,1v6.86Z"/><path class="cls-1" d="M72.89,56.66l-.14-.82a5,5,0,0,1-3,1,2.43,2.43,0,0,1-2.58-2.53c0-2.16,1.76-3.3,5.46-3.74v-.81c0-.73-.58-1.14-1.39-1.14a2.44,2.44,0,0,0-2.09,1.18L67.7,48.68a4.28,4.28,0,0,1,3.56-1.74c2.57.05,3.67,1,3.67,3.85v4.49a4.43,4.43,0,0,0,.18,1.38Zm-.24-4.57c-1.52.3-3.19.61-3.19,1.95a1,1,0,0,0,1.1,1.12,3.92,3.92,0,0,0,2.09-1Z"/><path class="cls-1" d="M77.21,47.12V44h2.27v3.16h1.88V49H79.48v5.4c0,.51.26.66.83.66a5.24,5.24,0,0,0,1-.18V56.7a15.76,15.76,0,0,1-1.8.14c-1.69,0-2.35-.84-2.35-2.2V49H75.89V47.12Z"/><path class="cls-1" d="M82.81,45.36V43.23h2.27v2.13Zm2.27,11.3H82.81V47.12h2.27Z"/><path class="cls-1" d="M90.73,46.94c2.59,0,4.15,1.92,4.15,5s-1.56,5-4.15,5-4.14-1.92-4.14-5S88.15,46.94,90.73,46.94Zm0,1.83c-1.26,0-1.87,1-1.87,3.12S89.47,55,90.73,55s1.88-1,1.88-3.12S92,48.77,90.73,48.77Z"/><path class="cls-1" d="M96.27,56.66V47.12h2.09v1a5.32,5.32,0,0,1,2.94-1.21c1.91,0,2.82,1.24,2.82,3.19v6.53h-2.27v-6.2c0-1.29-.41-1.69-1.18-1.69a2.88,2.88,0,0,0-2.12,1v6.88Z"/><path class="cls-1" d="M118.58,46.94a2.45,2.45,0,0,0-2.37-1.73c-1.1,0-1.89.44-1.89,1.47,0,2.27,6.83,1.8,6.83,6.09,0,2.72-1.71,4.07-4.64,4.07a5.26,5.26,0,0,1-5-3.13l2.09-.92a3,3,0,0,0,2.88,2.07c1.27,0,2.24-.47,2.24-1.76,0-2.6-6.82-2.09-6.82-6.16,0-2.37,2-3.71,4.27-3.71a4.82,4.82,0,0,1,4.68,3Z"/><path class="cls-1" d="M121.61,58.2a3.9,3.9,0,0,0,1,.08,1.46,1.46,0,0,0,1.51-.76,2.5,2.5,0,0,0,.37-1.12,4.63,4.63,0,0,0-.3-1.13l-2.55-8.15h2.3L125.46,53h0l1.63-5.87h2.28l-3,9.56c-1,2.73-1.82,3.47-3.69,3.47a6.61,6.61,0,0,1-1.1-.08Z"/><path class="cls-1" d="M135,49.63a2.64,2.64,0,0,0-1.78-1c-.88,0-1.29.37-1.29.94,0,1.63,4.77.94,4.77,4.42,0,2-1.5,2.86-3.5,2.86a4.18,4.18,0,0,1-3.61-1.92l1.52-1.14a2.83,2.83,0,0,0,2.22,1.38c.81,0,1.36-.44,1.36-1.09,0-1.63-4.77-1-4.77-4.36a2.87,2.87,0,0,1,3.15-2.77,4.36,4.36,0,0,1,3.36,1.45Z"/><path class="cls-1" d="M138.73,47.12V44H141v3.16h1.87V49H141v5.4c0,.51.26.66.83.66a5.14,5.14,0,0,0,1-.18V56.7a15.41,15.41,0,0,1-1.8.14c-1.68,0-2.34-.84-2.34-2.2V49H137.4V47.12Z"/><path class="cls-1" d="M145.71,52.26c0,2,.92,2.75,2,2.75a2.51,2.51,0,0,0,2.12-1.14l1.66,1a4.32,4.32,0,0,1-4,1.94c-2.48,0-4-1.92-4-5s1.56-5,4.15-5,3.89,2.09,3.89,4.38v.94Zm3.67-1.54c0-1.33-.73-2.1-1.83-2.1s-1.8.77-1.84,2.1Z"/><path class="cls-1" d="M153,56.66V47.12h2.07v1a3.76,3.76,0,0,1,2.87-1.21,2.48,2.48,0,0,1,2.34,1.39,4.27,4.27,0,0,1,3.29-1.39c1,0,2.35.58,2.35,2.86v6.86h-2.28V50c0-.77-.31-1.19-1.14-1.23a3.43,3.43,0,0,0-1.9,1v6.86h-2.28V50c0-.77-.31-1.19-1.14-1.23a3.43,3.43,0,0,0-1.9,1v6.86Z"/><path class="cls-1" d="M172.51,49.63a2.6,2.6,0,0,0-1.78-1c-.88,0-1.28.37-1.28.94,0,1.63,4.77.94,4.77,4.42,0,2-1.5,2.86-3.5,2.86a4.2,4.2,0,0,1-3.62-1.92l1.52-1.14a2.85,2.85,0,0,0,2.22,1.38c.81,0,1.36-.44,1.36-1.09,0-1.63-4.77-1-4.77-4.36a2.88,2.88,0,0,1,3.16-2.77A4.37,4.37,0,0,1,174,48.39Z"/><path class="cls-1" d="M21.46,13.22a1.3,1.3,0,0,0-1.26-.92c-.59,0-1,.23-1,.78,0,1.21,3.63,1,3.63,3.24,0,1.44-.91,2.16-2.47,2.16a2.79,2.79,0,0,1-2.63-1.67l1.11-.49a1.63,1.63,0,0,0,1.53,1.11c.68,0,1.19-.26,1.19-.94,0-1.38-3.62-1.11-3.62-3.27a2,2,0,0,1,2.27-2,2.55,2.55,0,0,1,2.48,1.59Z"/><path class="cls-1" d="M26.65,15c-.2-.43-.41-.77-1-.77s-1,.53-1,1.66.32,1.65,1,1.65a1.25,1.25,0,0,0,1.08-.8l.91.51a2.07,2.07,0,0,1-2,1.27c-1.38,0-2.21-1-2.21-2.63s.83-2.63,2.21-2.63a2,2,0,0,1,2,1.35Z"/><path class="cls-1" d="M28.43,18.38v-7h1.21v2.51a2.34,2.34,0,0,1,1.46-.64c1,0,1.5.66,1.5,1.69v3.47H31.39V15.09c0-.68-.21-.9-.62-.9a1.51,1.51,0,0,0-1.13.54v3.65Z"/><path class="cls-1" d="M35.56,13.22c1.37,0,2.2,1,2.2,2.63s-.83,2.63-2.2,2.63-2.2-1-2.2-2.63S34.18,13.22,35.56,13.22Zm0,1c-.67,0-1,.53-1,1.66s.33,1.65,1,1.65,1-.52,1-1.65S36.23,14.19,35.56,14.19Z"/><path class="cls-1" d="M40.43,13.22c1.37,0,2.2,1,2.2,2.63s-.83,2.63-2.2,2.63-2.2-1-2.2-2.63S39.06,13.22,40.43,13.22Zm0,1c-.67,0-1,.53-1,1.66s.32,1.65,1,1.65,1-.52,1-1.65S41.1,14.19,40.43,14.19Z"/><path class="cls-1" d="M43.47,18.38v-7h1.21v7Z"/><path class="cls-1" d="M50.84,13.22c1.37,0,2.2,1,2.2,2.63s-.83,2.63-2.2,2.63-2.2-1-2.2-2.63S49.47,13.22,50.84,13.22Zm0,1c-.67,0-1,.53-1,1.66s.32,1.65,1,1.65,1-.52,1-1.65S51.51,14.19,50.84,14.19Z"/><path class="cls-1" d="M55.22,14.29v4.09H54V14.29h-.7v-1H54v-.62c0-1.09.44-1.44,1.43-1.44h.8v1H55.9c-.5,0-.68.16-.68.55v.54h1v1Z"/></g></g></svg>